<?xml version="1.0" standalone="no"?>
<!DOCTYPE svg PUBLIC "-//W3C//DTD SVG 20010904//EN"
 "http://www.w3.org/TR/2001/REC-SVG-20010904/DTD/svg10.dtd">
<svg version="1.0" xmlns="http://www.w3.org/2000/svg"
 width="1377.000000pt" height="775.000000pt" viewBox="0 0 1377.000000 775.000000"
 preserveAspectRatio="xMidYMid meet">

<g transform="translate(0.000000,775.000000) scale(0.100000,-0.100000)"
fill="#000000" stroke="none">
<path d="M0 3875 l0 -3875 6885 0 6885 0 0 3875 0 3875 -6885 0 -6885 0 0
-3875z m1497 1854 l153 -91 0 -458 c0 -423 -1 -458 -17 -472 -10 -8 -108 -66
-218 -128 -110 -62 -206 -118 -213 -124 -9 -9 39 -39 215 -133 l228 -122 3
-332 c2 -298 4 -335 19 -352 15 -16 16 -20 2 -27 -8 -5 -323 -254 -699 -554
-376 -300 -686 -544 -687 -542 -2 2 10 60 27 130 l30 127 0 1529 0 1528 -46
56 -45 56 547 0 548 0 153 -91z m1457 -21 l96 -112 0 -1281 0 -1281 -342 -290
c-188 -159 -350 -295 -360 -302 -16 -12 -49 16 -318 265 l-300 278 0 1297 0
1297 92 121 92 120 472 0 471 0 97 -112z m1383 21 l153 -91 0 -458 c0 -423 -1
-458 -17 -472 -10 -8 -108 -66 -218 -128 -110 -62 -206 -118 -213 -124 -9 -9
39 -39 215 -133 l228 -122 3 -427 c1 -277 6 -432 13 -440 12 -14 32 2 -270
-218 -117 -86 -217 -156 -222 -156 -5 0 -9 225 -9 518 l0 518 -162 86 -163 86
-3 -660 -2 -659 31 -45 c17 -25 29 -49 27 -55 -3 -9 -590 -448 -595 -445 -1 1
9 42 22 91 l25 90 0 1612 0 1611 -46 56 -45 56 547 0 548 0 153 -91z m793 69
c0 -22 285 -906 295 -916 3 -3 5 207 5 466 l0 472 265 0 265 0 0 -1157 c0
-1007 2 -1159 15 -1173 13 -15 -11 -36 -258 -227 -259 -202 -272 -211 -275
-185 -4 30 -286 955 -301 987 -6 13 -10 -190 -10 -558 l-1 -578 25 -43 24 -42
-281 -217 c-155 -119 -283 -215 -286 -213 -2 3 5 45 17 94 21 89 21 100 21
1645 l0 1555 -46 56 -45 56 285 0 286 0 0 -22z m2157 -69 l153 -91 0 -165 0
-165 -410 -645 -410 -644 0 -235 c0 -128 3 -234 8 -234 4 1 185 136 402 300
217 165 398 300 402 300 4 0 9 -143 11 -317 1 -175 6 -327 10 -338 7 -17 -81
-90 -683 -563 -380 -299 -693 -542 -696 -539 -3 2 9 59 26 125 l30 121 0 693
0 693 370 633 c204 349 370 635 370 638 0 2 -47 4 -105 4 l-105 0 0 -80 0 -80
-265 0 -265 0 0 284 0 284 -46 56 -45 56 547 0 548 0 153 -91z m1460 0 l153
-91 0 -458 c0 -423 -1 -458 -17 -472 -10 -8 -108 -66 -218 -128 -110 -62 -206
-118 -213 -124 -9 -9 39 -39 215 -133 l228 -122 5 -808 c5 -800 5 -809 28
-897 12 -49 21 -93 20 -97 -2 -4 -226 171 -498 388 -272 217 -587 468 -699
556 -200 158 -203 161 -182 178 l21 17 0 1085 0 1085 -46 56 -45 56 547 0 548
0 153 -91z m765 -1260 l3 -1352 142 124 142 124 1 1228 0 1227 265 0 265 0 0
-1393 0 -1393 -342 -290 c-188 -159 -350 -295 -360 -302 -16 -12 -49 16 -318
265 l-300 278 0 1418 0 1417 250 0 250 0 2 -1351z m2105 1260 l153 -91 0 -458
c0 -423 -1 -458 -17 -472 -10 -8 -108 -66 -218 -128 -110 -62 -206 -118 -213
-124 -9 -9 39 -39 215 -133 l228 -122 5 -893 c5 -812 7 -897 23 -942 9 -27 15
-51 13 -54 -3 -3 -460 336 -584 434 -2 1 10 23 27 48 l31 45 0 578 0 579 -162
86 -163 86 -3 -609 -2 -608 -260 186 c-241 171 -260 187 -245 203 13 15 15
149 15 1192 l0 1176 -46 56 -45 56 547 0 548 0 153 -91z m813 69 c0 -22 285
-906 295 -916 3 -3 5 207 5 466 l0 472 306 0 305 0 -20 -27 c-11 -16 -29 -39
-40 -53 -20 -25 -21 -39 -21 -1602 0 -1389 2 -1585 15 -1644 9 -36 14 -68 12
-71 -3 -2 -135 98 -295 224 l-290 228 14 27 c9 18 14 61 14 128 l0 102 -141
461 c-78 254 -145 469 -150 477 -5 8 -9 -196 -9 -465 0 -264 -4 -486 -8 -493
-6 -8 -81 44 -256 180 -206 160 -245 194 -232 204 14 10 16 128 16 1112 l0
1100 -46 56 -45 56 285 0 286 0 0 -22z"/>
<path d="M820 5010 c0 -274 1 -290 18 -281 9 6 87 52 172 104 l155 93 3 187 2
187 -175 0 -175 0 0 -290z"/>
<path d="M830 3854 c0 -303 1 -315 18 -302 10 7 89 69 175 138 l157 125 0 96
0 96 -77 36 c-43 19 -122 56 -175 81 l-98 45 0 -315z"/>
<path d="M2230 4351 l0 -988 108 -95 c59 -52 124 -109 145 -127 l37 -33 0
1116 0 1116 -145 0 -145 0 0 -989z"/>
<path d="M3660 5010 c0 -274 1 -290 18 -281 9 6 87 52 172 104 l155 93 3 187
2 187 -175 0 -175 0 0 -290z"/>
<path d="M8070 5010 c0 -274 1 -290 18 -281 9 6 87 52 172 104 l155 93 3 187
2 187 -175 0 -175 0 0 -290z"/>
<path d="M8080 3993 l0 -179 157 -124 c86 -69 165 -131 175 -138 18 -13 18 -5
16 199 l-3 213 -155 93 c-85 52 -163 98 -172 104 -17 9 -18 -2 -18 -168z"/>
<path d="M10940 5010 c0 -274 1 -290 18 -281 9 6 87 52 172 104 l155 93 3 187
2 187 -175 0 -175 0 0 -290z"/>
</g>
</svg>
